<svg xmlns="http://www.w3.org/2000/svg" width="41" height="41" viewBox="0 0 41 41"><g><g><path fill="#fff" d="M1.538 20.5c0 10.455 8.507 18.962 18.962 18.962S39.462 30.956 39.462 20.5 30.956 1.538 20.5 1.538 1.538 10.045 1.538 20.5zM41 20.5C41 31.826 31.826 41 20.5 41S0 31.826 0 20.5 9.174 0 20.5 0 41 9.174 41 20.5zm-23.217 6.509c-.359.205-.717.153-1.025 0-.307-.154-.512-.513-.512-.872V14.862c0-.358.205-.666.512-.87a.931.931 0 0 1 1.025 0l9.738 5.637c.307.153.512.512.512.87 0 .36-.205.667-.512.872z"/></g></g></svg>