<svg xmlns="http://www.w3.org/2000/svg" width="177" height="52" viewBox="0 0 177 52"><g><g><path fill="#fff" d="M7.79 23.383l2.655-1.31 4.195-6.281 1.284-.524 1.37 6.37-1.798.261-1.37-2.617-1.027 4.1h4.537l4.709 1.222 1.883-1.221 3.168 3.315 1.37-6.107 2.226 2.268 1.37-1.92 2.225-.61 3.254-3.054.513-1.483 2.654.436 1.113 1.483-1.969 4.188 4.88-2.53v-1.221l1.884-.437 2.054 2.094 2.055-2.53V15.53l3.339-2.355 1.37-2.007h2.14l3.767-7.765L64.894 0l1.199 1.92-1.884 2.442.685 1.57 1.798.35 1.455 6.456v5.41l2.569 3.577L72 26.698l-4.452-2.88-1.969-8.288-1.199.262-.17 5.584-3.254 5.322-.942 8.114 2.226.524.942-1.135 2.14 2.443 1.627 7.33-.171 4.71h-2.055l-.77-6.63-1.456 2.006-3.168-.698-2.568-2.18-2.91 1.046.17 4.712-2.311.61-3.425 2.618-4.109-.524-1.627-.96-2.568.437.856 1.047-2.055 1.221-1.626-.785L34.074 52l-4.709-2.356-1.798-4.188-1.54.175-1.799-1.483-.085-1.135-5.736-.61-.942 3.14-3.596-1.657-1.798-3.054H8.22l-.428 4.886-2.226.698-1.113 4.45-.856-.785L0 40.745l4.28-2.094-.684-4.1-.685-4.189 1.883-2.704L4.195 26l2.568-2.792zm56.933 9.422l3.596 3.84 1.626 2.442-1.284.524-3.938-5.933zm-41.95-11.167v-2.182l1.627-1.483 2.654-1.57h2.996l-2.568 1.308-2.997 2.182v1.745zm67.352 1.908h7.534c3.878 0 6.477 2.454 6.477 6.17 0 3.759-2.667 6.103-6.647 6.103h-2.625V41h-4.739zm6.41 8.59c1.661 0 2.658-.928 2.658-2.42 0-1.5-.997-2.386-2.659-2.386h-1.67v4.807zm8.65 2.353c0-4.023 2.522-6.75 6.784-6.75 4.261 0 6.784 2.727 6.784 6.75s-2.523 6.75-6.784 6.75c-4.262 0-6.784-2.727-6.784-6.75zm8.761-.034c0-2.054-.75-3.307-1.943-3.307-1.262 0-2.012 1.253-2.012 3.307 0 2.054.75 3.307 2.012 3.307 1.193 0 1.943-1.253 1.943-3.307zm6.239.034c0-4.023 2.522-6.75 6.784-6.75 3.852 0 6.281 2.216 6.307 5.625h-4.364c-.128-1.372-.835-2.114-1.875-2.114-1.236 0-2.046 1.057-2.046 3.205s.81 3.204 2.046 3.204c1.031 0 1.773-.74 1.875-2.113h4.364c-.052 3.469-2.429 5.693-6.307 5.693-4.262 0-6.784-2.727-6.784-6.75zm14.554 0c0-4.023 2.523-6.75 6.784-6.75 3.853 0 6.282 2.216 6.307 5.625h-4.363c-.128-1.372-.836-2.114-1.875-2.114-1.236 0-2.046 1.057-2.046 3.205s.81 3.204 2.046 3.204c1.031 0 1.772-.74 1.875-2.113h4.363c-.051 3.469-2.429 5.693-6.307 5.693-4.261 0-6.784-2.727-6.784-6.75zm23.112-6.58h4.432V41h-4.432v-7.125L154.203 41h-4.432V27.91h4.432V35zm14.361 8.762h-1.509L168.496 41h-4.33l2.583-5.063c-1.569-.733-2.463-1.969-2.446-3.46-.026-2.66 2.36-4.568 6.136-4.568h6.136V41h-4.363zm0-5.25h-1.773c-1.185 0-1.73.682-1.705 1.227-.025.58.554 1.193 1.807 1.193h1.671z"/></g></g></svg>